<svg xmlns="http://www.w3.org/2000/svg" xmlns:xlink="http://www.w3.org/1999/xlink" viewBox="0 0 1522.71 1381.02">
  <defs>
    <clipPath id="clip-path">
      <polygon style="fill:none;" points="1366.53 814.27 1265.31 512.49 1332.63 509.41 1434.73 802.68 1434.73 148.6 89.91 148.6 89.91 1255.71 1434.73 1255.71 1434.73 818.75 1366.53 814.27"/>
    </clipPath>
  </defs>

  <title>Asset 1irma logo</title>
  <g id="Layer_2" data-name="Layer 2">
    <g id="Layer_1-2" data-name="Layer 1">
      <g id="Rounded_Rectangle_1" data-name="Rounded Rectangle 1">
        <path style="fill:#d44454" d="M382,1351.23c-35.92,0-67.3-21.45-78.11-53.37L114,736.23c-14.22-42,11-88.67,56.24-104l903.9-306.31a92.59,92.59,0,0,1,29.72-4.94c35.92,0,67.32,21.45,78.12,53.39L1371.83,936c14.22,42-11,88.68-56.23,104l-903.92,306.3a92.27,92.27,0,0,1-29.72,4.94Z"/>
        <path style="fill:#d44454" d="M1103.83,350.79c22.61,0,43,12.62,49.87,33.12l189.89,561.62c9,26.5-7.85,56.15-37.58,66.23l-903.9,306.3a62.81,62.81,0,0,1-20.16,3.36c-22.6,0-42.94-12.62-49.88-33.12L142.2,726.68c-9-26.5,7.86-56.16,37.57-66.22l903.9-306.31a62.81,62.81,0,0,1,20.16-3.36m0-59.61a122.26,122.26,0,0,0-39.29,6.51L160.64,604c-60.78,20.59-94.39,84.19-74.91,141.78l189.89,561.61c14.9,44,57.64,73.63,106.35,73.63a122,122,0,0,0,39.3-6.51l903.89-306.3c60.79-20.61,94.39-84.22,74.91-141.79l-189.9-561.6C1195.27,320.77,1152.54,291.18,1103.83,291.18Z"/>
        <path style="fill:#ffbb58" d="M425.74,1060.06c-35.92,0-67.3-21.45-78.11-53.38L157.75,445.06c-14.22-42,11-88.68,56.24-104l903.9-306.31a92.31,92.31,0,0,1,29.72-4.94c35.92,0,67.32,21.45,78.12,53.38l189.88,561.62c14.22,42-11,88.67-56.23,104l-903.92,306.3a92,92,0,0,1-29.72,5Z"/>
        <path style="fill:#ffbb58" d="M1147.61,59.61c22.61,0,43,12.62,49.87,33.13l189.89,561.61c9,26.51-7.85,56.16-37.58,66.24l-903.9,306.29a62.54,62.54,0,0,1-20.16,3.36c-22.6,0-43-12.62-49.88-33.11L186,435.51c-9-26.51,7.86-56.16,37.57-66.23L1127.45,63a62.56,62.56,0,0,1,20.16-3.37m0-59.61a122.26,122.26,0,0,0-39.29,6.51L204.42,312.82C143.64,333.42,110,397,129.51,454.6L319.4,1016.21c14.9,44,57.63,73.63,106.35,73.63a122,122,0,0,0,39.3-6.51L1368.94,777c60.79-20.6,94.39-84.21,74.91-141.79L1254,73.64C1239.05,29.59,1196.32,0,1147.61,0Z"/>
        <path style="fill:#2bc194" d="M185.21,1099.47c-35.35-6.37-62.43-33-67.4-66.39L30.63,446.67c-6.53-43.88,26.58-85.31,73.8-92.37l943.92-141a92.26,92.26,0,0,1,30.13.41c35.35,6.37,62.44,33.06,67.4,66.4l87.19,586.4c6.53,43.87-26.58,85.31-73.81,92.38l-943.92,141a92,92,0,0,1-30.13-.41Z"/>
        <path style="fill:#2bc194" d="M1073.19,243c22.25,4,40,20,43.2,41.45l87.18,586.4c4.13,27.68-17.69,53.87-48.73,58.52l-943.91,141a62.68,62.68,0,0,1-20.44-.27c-22.25-4-40-20-43.21-41.44L60.11,442.28c-4.13-27.67,17.7-53.87,48.73-58.5l943.92-141a62.62,62.62,0,0,1,20.43.27m10.58-58.66a122,122,0,0,0-39.82-.57L100,324.82C36.56,334.3-7.8,390.93,1.15,451.05l87.18,586.4c6.85,46,43.66,82.69,91.6,91.34a122.33,122.33,0,0,0,39.83.57l943.91-141c63.48-9.5,107.83-66.13,98.88-126.25l-87.2-586.39C1168.51,229.73,1131.7,193,1083.77,184.38Z"/>
        <path style="fill:#00b1e6" d="M446.49,1190c-35.42-6-62.76-32.43-68.06-65.71L285.38,538.75c-7-43.81,25.72-85.57,72.87-93.1l942.46-150.46a92.86,92.86,0,0,1,30.13.11c35.42,6,62.77,32.44,68.06,65.73L1492,946.53c7,43.8-25.72,85.57-72.88,93.11L476.62,1190.08a92,92,0,0,1-30.13-.11Z"/>
        <path style="fill:#00b1e6" d="M1325.84,324.69c22.29,3.79,40.23,19.64,43.62,41l93,585.5c4.4,27.64-17.15,54-48.14,59L471.91,1160.65a62.74,62.74,0,0,1-20.43-.07c-22.29-3.79-40.23-19.64-43.63-41l-93-585.5c-4.4-27.63,17.16-54.05,48.14-59l942.46-150.45a62.47,62.47,0,0,1,20.43.06m10-58.77a122.36,122.36,0,0,0-39.83-.17L353.55,416.21c-63.37,10.12-107.16,67.18-97.61,127.22L349,1128.92c7.3,45.92,44.48,82.25,92.5,90.42a122.15,122.15,0,0,0,39.84.17l942.44-150.45c63.38-10.13,107.17-67.2,97.62-127.23l-93.08-585.48C1421,310.42,1383.85,274.08,1335.84,265.92Z"/>
      </g>
      <g id="Rounded_Rectangle_1_1_1" data-name="Rounded Rectangle 1 1 1">
        <path style="fill:#004c92" d="M400.86,1214.31c-35.92,0-67.31-21.45-78.11-53.38L132.87,599.31c-14.22-42,11-88.68,56.23-104L1093,189a92.31,92.31,0,0,1,29.72-4.94c35.92,0,67.31,21.45,78.12,53.38l189.88,561.62c14.21,42-11,88.67-56.24,104l-903.91,306.3a92.05,92.05,0,0,1-29.72,5Z"/>
        <path style="fill:#fff" d="M1122.73,213.86c22.6,0,43,12.62,49.87,33.13L1362.48,808.6c9,26.51-7.85,56.16-37.57,66.24L421,1181.14a62.8,62.8,0,0,1-20.16,3.35c-22.61,0-43-12.62-49.88-33.11L161.09,589.76c-9-26.51,7.86-56.16,37.58-66.22l903.9-306.31a62.51,62.51,0,0,1,20.16-3.37m0-59.61a122.21,122.21,0,0,0-39.29,6.51L179.54,467.07c-60.79,20.6-94.39,84.2-74.91,141.78l189.88,561.61c14.9,44,57.64,73.63,106.36,73.63a122,122,0,0,0,39.29-6.51l903.9-306.3c60.78-20.6,94.39-84.21,74.91-141.79l-189.91-561.6C1214.17,183.84,1171.43,154.25,1122.73,154.25Z"/>
      </g>
      <g id="IRMA">
        <g style="clip-path:url(#clip-path)">
          <rect style="fill:#fff" x="476.91" y="518.15" width="55.79" height="294.84"/>
          <path style="fill:#fff" d="M597.34,518.15H699.63q45.17,0,73.49,26.54t28.36,65.71A84.82,84.82,0,0,1,786,660.31q-15.47,22.11-42.05,33.06L812.54,813H751l-59.77-111.2H653.14V813H597.35V518.15ZM699.63,567H653.14v85.93h46.49q19.92,0,31.88-11.8t12-31.16q0-19-12-31T699.63,567Z"/>
          <path style="fill:#fff" d="M1016.33,734.71l-46-.15L910.82,629.87V813H855V518.15h49.59l88.54,157.1,89-157.1h49.14V813h-55.78V630.19Z"/>
          <path style="fill:#fff" d="M1371.75,813l-19.85-62.76H1246.37L1226.52,813h-60.66l104.93-294.84H1327L1432,813Zm-72.62-228.72-39.05,122.57h78.1Z"/>
        </g>
      </g>
    </g>
  </g>
</svg>
